<!-- Generated by IcoMoon.io -->
<svg version="1.1" xmlns="http://www.w3.org/2000/svg" width="768" height="768" viewBox="0 0 768 768">
<title></title>
<g id="icomoon-ignore">
</g>
<path d="M384 615q51 0 107.25-30t84.75-73.5q-1.5-42-67.5-70.5t-124.5-28.5-124.5 27.75-67.5 71.25q28.5 43.5 84.75 73.5t107.25 30zM384 160.5q-39 0-67.5 28.5t-28.5 67.5 28.5 67.5 67.5 28.5 67.5-28.5 28.5-67.5-28.5-67.5-67.5-28.5zM384 64.5q132 0 225.75 93.75t93.75 225.75-93.75 225.75-225.75 93.75-225.75-93.75-93.75-225.75 93.75-225.75 225.75-93.75z"></path>
</svg>
